<svg width="27" height="27" viewBox="0 0 27 27" fill="none" xmlns="http://www.w3.org/2000/svg">
<g id="facebook-3-logo-svgrepo-com 1">
<g clip-path="url(#clip0_702_153)">
<path id="Vector" d="M13.5 27C20.9558 27 27 20.9558 27 13.5C27 6.04416 20.9558 0 13.5 0C6.04416 0 0 6.04416 0 13.5C0 20.9558 6.04416 27 13.5 27Z" fill="#3C5A9A"/>
<path id="Vector_2" d="M17.8896 4.1438H14.899C13.1243 4.1438 11.1503 4.89022 11.1503 7.46273C11.159 8.3591 11.1503 9.21755 11.1503 10.1837H9.09723V13.4508H11.2139V22.8562H15.1033V13.3887H17.6704L17.9027 10.1745H15.0363C15.0363 10.1745 15.0427 8.74471 15.0363 8.32949C15.0363 7.31288 16.0941 7.3711 16.1577 7.3711C16.6611 7.3711 17.6398 7.37257 17.8911 7.3711V4.1438H17.8896Z" fill="white"/>
</g>
</g>
<defs>
<clipPath id="clip0_702_153">
<rect width="27" height="27" rx="13.5" fill="white"/>
</clipPath>
</defs>
</svg>
