<svg width="26" height="26" viewBox="0 0 26 26" fill="none" xmlns="http://www.w3.org/2000/svg">
<g id="google-icon-logo-svgrepo-com 1">
<g clip-path="url(#clip0_702_137)">
<path id="Vector" d="M25.0778 13.4622C25.0778 12.4395 24.9944 11.6931 24.8139 10.9192H13.0757V15.5353H19.9658C19.8269 16.6824 19.0768 18.41 17.4098 19.5709L17.3864 19.7254L21.0978 22.586L21.355 22.6115C23.7164 20.4416 25.0778 17.249 25.0778 13.4622Z" fill="#4285F4"/>
<path id="Vector_2" d="M13.0758 25.6243C16.4513 25.6243 19.2851 24.5186 21.355 22.6114L17.4098 19.5708C16.3541 20.3033 14.9372 20.8146 13.0758 20.8146C9.76965 20.8146 6.96362 18.6448 5.96335 15.6458L5.81673 15.6581L1.95757 18.6296L1.9071 18.7692C3.963 22.8324 8.18597 25.6243 13.0758 25.6243Z" fill="#34A853"/>
<path id="Vector_3" d="M5.96333 15.6457C5.6994 14.8718 5.54665 14.0425 5.54665 13.1856C5.54665 12.3287 5.6994 11.4995 5.94944 10.7255L5.94245 10.5607L2.03493 7.5415L1.90708 7.60201C1.05975 9.28815 0.573547 11.1816 0.573547 13.1856C0.573547 15.1896 1.05975 17.083 1.90708 18.7691L5.96333 15.6457Z" fill="#FBBC05"/>
<path id="Vector_4" d="M13.0758 5.55664C15.4234 5.55664 17.0069 6.56555 17.9099 7.40867L21.4383 3.98112C19.2713 1.97712 16.4513 0.74707 13.0758 0.74707C8.18597 0.74707 3.963 3.53883 1.9071 7.60209L5.94947 10.7256C6.96362 7.72652 9.76965 5.55664 13.0758 5.55664Z" fill="#EB4335"/>
</g>
</g>
<defs>
<clipPath id="clip0_702_137">
<rect x="0.286255" y="0.74707" width="25.0906" height="24.963" rx="12.4815" fill="white"/>
</clipPath>
</defs>
</svg>
